<?xml version="1.0" encoding="UTF-8"?>
<!-- Created with Inkscape (http://www.inkscape.org/) -->
<svg width="999.87" height="287.48" version="1.1" viewBox="0 0 999.87 287.48" xmlns="http://www.w3.org/2000/svg" xmlns:cc="http://creativecommons.org/ns#" xmlns:dc="http://purl.org/dc/elements/1.1/" xmlns:rdf="http://www.w3.org/1999/02/22-rdf-syntax-ns#">
 <metadata>
  <rdf:RDF>
   <cc:Work rdf:about="">
    <dc:format>image/svg+xml</dc:format>
    <dc:type rdf:resource="http://purl.org/dc/dcmitype/StillImage"/>
    <dc:title/>
   </cc:Work>
  </rdf:RDF>
 </metadata>
 <path d="m211.95 287.13c-2.6253-1.1106-2.742-2.9452-0.55431-8.7137 3.1022-8.1799 4.2682-13.582 4.5676-21.16 0.21606-5.4685 0.0867-7.901-0.56773-10.677-2.7042-11.471-9.8378-22.118-17.362-25.913-5.7387-2.894-8.0522-3.3299-20.197-3.8057-13.109-0.51355-23.07-1.8797-36.436-4.9972-1.7188-0.40087-3.2116-0.64229-3.3174-0.53649s0.1597 0.87318 0.59 1.7053c1.545 2.9877 2.1684 7.676 1.4993 11.274-2.8048 15.082-21.209 30.023-62.946 51.1-14.194 7.1681-17.156 8.3444-19.774 7.8532-2.2399-0.42022-4.7495-3.2187-5.549-6.1879-1.499-5.5667 1.0529-10.922 8.9427-18.766 6.4826-6.4455 10.458-9.3592 23.562-17.272 11.35-6.853 15.854-10.094 19.361-13.931 5.3886-5.896 6.0554-10.108 2.9324-18.525-5.7392-15.467-9.5221-20.444-19.141-25.183-3.0035-1.4796-8.0576-3.4359-11.231-4.3471-12.117-3.4791-20.681-8.6949-26.868-16.364-1.4479-1.7948-4.5777-6.4501-6.9549-10.345-7.6414-12.52-19.714-28.04-25.32-32.549-3.8353-3.0848-8.339-5.0854-13.119-5.8278l-4.0656-0.63138v-33.798c0-31.848 0.05246-33.778 0.9092-33.449 2.1959 0.84264 14.814 2.4029 23.39 2.8923 13.114 0.74833 33.645-0.41084 46.52-2.6265 5.9286-1.0202 16.513-1.4565 23.082-0.95137 15.289 1.1756 29.378 6.0014 42.23 14.465 5.8063 3.8238 9.0874 6.4726 17.836 14.399 20.49 18.565 38.944 29.646 57.18 34.337 5.017 1.2905 6.7638 1.486 13.377 1.4976 6.598 0.0115 8.0934-0.14928 11.279-1.2129 12.015-4.0122 19.996-13.928 24.558-30.511 4.4623-16.22 1.9878-30.474-7.4158-42.717-3.9133-5.095-12.586-13.379-18.058-17.249-5.7224-4.0466-8.7892-7.1529-8.7892-8.9024 0-4.1188 8.7362-7.6641 17.445-7.0798 15.345 1.0295 31.503 16.684 38.36 37.163 3.5886 10.718 4.9413 25.437 3.252 35.389-2.3578 13.89-9.6249 27.581-20.696 38.991-10.042 10.349-22.066 16.917-36.684 20.039-7.4507 1.591-20.609 1.9863-26.12 0.78473-10.706-2.3342-22.467-8.7-34.531-18.691-2.834-2.3471-5.0636-4.0646-4.9546-3.8167 0.10903 0.24792 1.4357 2.935 2.9481 5.9713 8.1799 16.421 7.6752 34.264-1.4855 52.523l-2.5385 5.0595 1.5548 2.3474c3.4236 5.1687 12.014 8.9325 22.006 9.6412 3.4563 0.24517 5.857 0.0508 10.676-0.8641 8.9788-1.7049 12.969-0.94406 16.966 3.2352 3.4851 3.6434 5.7325 10.808 14.096 44.935 2.9116 11.881 4.7264 17.612 8.683 27.421 3.3918 8.4081 3.7411 10.791 2.109 14.384-1.8012 3.9648-6.5066 7.0408-14.086 9.2084-4.4178 1.2634-9.4462 1.7091-11.15 0.98829zm-85.383-115.86c1.7643-2.0967 3.8226-7.4452 4.8872-12.699 0.68344-3.3729 0.81533-5.7987 0.5671-10.43-0.52592-9.8126-3.8033-26.449-6.9245-35.15-1.5679-4.3707-6.9377-15.213-7.5345-15.213-0.5102 0-3.4277 12.465-4.6043 19.672-1.3503 8.2708-1.3283 25.445 0.041 32 1.8062 8.6462 5.8919 19.302 8.5985 22.426 1.2376 1.4285 3.4885 1.154 4.9695-0.60605zm395.14 114.24c-19.923-2.5307-35.873-15.663-42.671-35.136-3.3916-9.714-4.0191-14.108-3.999-28.003 0.016-11.011 0.1644-13.26 1.1837-17.935 1.5122-6.9348 3.8774-13.628 6.5163-18.439 2.2877-4.1711 7.3341-10.735 9.9371-12.925 0.89318-0.75155 1.5353-1.4191 1.4269-1.4833-0.10836-0.0643-1.6134-0.78504-3.3446-1.6017-12.03-5.675-23.321-16.932-29.852-29.759-10.767-21.149-12.751-53.471-4.7554-77.466 8.9024-26.715 28.825-43.868 57.753-49.726 15.997-3.2391 37.961-2.3655 54.756 2.1778 4.176 1.1297 14.56 4.6999 15.116 5.1971 0.0908 0.0811-1.4437 3.8403-3.4098 8.3536-2.6849 6.1632-3.7706 8.141-4.3617 7.9448-0.43278-0.14373-4.2268-1.4541-8.4312-2.912-11.846-4.1077-18.243-5.3013-30.213-5.6382-10.992-0.30931-15.649 0.13138-23.714 2.244-19.148 5.016-33.324 19.259-39.139 39.325-2.4186 8.346-3.0797 13.766-3.0698 25.167 0.0131 15.094 2.0518 25.935 6.7374 35.826 7.3285 15.471 19.939 25.105 38.026 29.052 4.9898 1.0888 6.8412 1.2011 19.672 1.1932 12.29-8e-3 15.066-0.16479 20.984-1.1885 3.7508-0.6489 7.7049-1.4172 8.7869-1.7073l1.9672-0.52749v-49.796h-36.197v-16.787h55.082v78.655l-4.3279 1.3126c-2.3803 0.72195-5.9803 1.6824-8 2.1343-2.0197 0.4519-3.9884 0.93183-4.375 1.0665-0.47486 0.16545 0.10518 1.1377 1.7883 2.9973 4.8538 5.3631 8.9225 12.719 11.388 20.589 3.8613 12.323 4.5322 30.128 1.6637 44.153-4.6769 22.868-19.309 38.353-40.367 42.722-6.2414 1.295-7.3182 1.2981-5.2459 0.0152 3.1207-1.9319 7.5927-11.539 9.7775-21.003 1.4929-6.4676 1.8469-18.04 0.78788-25.756-0.45535-3.318-0.96918-7.2131-1.1418-8.6557-0.89784-7.5034-5.4265-28.316-7.8595-36.12-3.0272-9.7105-7.6828-20.333-12.188-27.81-1.421-2.3582-1.9584-2.8935-2.2971-2.2882-1.4942 2.6701-6.695 27.759-7.5827 36.58-0.18874 1.8754-0.41813 3.5405-0.50975 3.7002-0.40992 0.71436-1.0108 14.027-0.93113 20.628 0.16452 13.623 2.103 25.403 6.312 38.361 3.8372 11.813 8.3436 20.64 11.362 22.255 0.74261 0.39744 1.2263 0.92311 1.0749 1.1681-0.34686 0.5612-9.2505 0.46429-14.115-0.15363zm410.49 0.0653c-14.353-2.0081-24.722-10.057-28.659-22.245-1.8377-5.6896-2.3187-15.611-1.0362-21.375 2.6592-11.953 10.731-20.021 25.247-25.234 8.6764-3.116 20.577-4.7629 38.94-5.3885l10.623-0.36192-0.01-6.1031c-0.02-13.258-3.97-21.708-11.98-25.627l-2.9398-1.4383-12.399 0.14944c-13.584 0.16374-19.457-0.36493-25.656-2.3093-10.083-3.1631-17.613-10.544-20.79-20.378-1.8377-5.6896-2.3187-15.611-1.0362-21.375 2.6715-12.008 10.718-20.015 25.419-25.296 8.8956-3.1954 21.064-4.7677 42.308-5.4665l11.016-0.36239-0.039-7.6066c-0.054-10.565-1.647-16.183-5.9884-21.115-4.506-5.119-10.649-6.9363-22.039-6.5201-9.9517 0.36367-16.698 2.0715-28.303 7.1649-2.0858 0.91546-3.8678 1.5875-3.9601 1.4935-0.18822-0.19192-5.5076-13.465-5.5076-13.743 0-0.47059 9.7568-4.6002 14.227-6.0217 10.411-3.3107 14.505-5.4262 26.607-5.4378 12.14-0.0117 15.452 1.8846 22.912 4.7775 9.6937 3.7593 15.697 10.869 18.736 22.189l1.1704 4.3596 0.1498 100.85 0.1499 100.85h-6.5795c-7.7461 0-6.7783 1.025-8.9156-9.4426-0.7953-3.8951-1.6557-7.3104-1.912-7.5897-0.2877-0.31352-2.218 1.3186-5.0468 4.2674-7.6645 7.9896-13.228 11.345-22.098 13.328-5.2611 1.1761-17.493 1.7177-22.613 1.0012zm-277.25-0.30788c-10.621-1.4829-17.751-2.9642-26.623-5.5313l-5.6393-1.6317v-10.424c0-5.7331 0.0885-10.424 0.19682-10.424 0.10823 0 2.0558 0.85105 4.3279 1.8912 8.9354 4.0907 16.737 6.652 25.639 8.4176 6.7416 1.337 22.13 1.325 27.279-0.0214 8.8013-2.3015 14.596-6.8377 16.323-12.778 1.8784-6.4614-0.2505-14.223-4.8668-17.744-4.3233-3.2975-9.9077-5.1028-32.964-10.657-4.6164-1.112-10.282-2.7561-12.59-3.6535-11.522-4.4795-18.075-10.953-21.057-20.799-1.4915-4.9249-1.3603-16.047 0.25054-21.246 0.67043-2.1639 1.7838-4.91 2.474-6.1023l1.2551-2.1679-2.111-1.4629c-3.3492-2.321-7.4393-7.081-9.2568-10.773-2.4263-4.9284-3.3437-8.8673-3.6681-15.748-0.73789-15.652 5.4659-26.138 19.523-32.998 11.287-5.5087 22.69-7.4662 47.673-8.184l12.526-0.3599-0.28721-8.1836c-0.17076-4.8651-0.61073-9.3257-1.0851-11-3.2842-11.594-10.473-16.304-24.909-16.323-9.3102-0.0121-19.722 2.4805-30.125 7.2118-2.2415 1.0195-4.1514 1.7597-4.244 1.6449-0.13802-0.17082-1.4599-3.4421-5.4023-13.369-0.29409-0.74057 7.6656-4.377 14.074-6.4298 10.399-3.3311 14.503-5.2454 26.9-5.2622 10.213-0.0139 12.013 1.3711 16.288 2.496 14.213 3.7396 21.222 10.451 25.04 23.977 1.169 4.1411 1.1718 4.252 1.3293 53.592 0.0868 27.193 0.065 49.443-0.0483 49.443-0.11341 0-1.9531-0.80713-4.0883-1.7936-5.426-2.507-13.608-4.8404-20.542-5.8582-7.424-1.0897-22.528-0.80136-27.396 0.52298-10.416 2.834-15.481 8.419-15.472 17.06 5e-3 4.2672 0.85398 6.6705 3.2945 9.3181 3.8883 4.2184 9.7718 6.4807 27.769 10.678 13.155 3.068 20.251 5.3644 26.342 8.5245 4.6956 2.436 9.8841 6.9987 12.378 10.885 4.941 7.6999 6.054 21.245 2.5259 30.739-2.2692 6.1067-7.3474 12.144-13.708 16.297-4.6723 3.0507-9.8706 5.1772-16.637 6.8058-4.8946 1.1781-6.8231 1.3433-17.311 1.4835-6.4918 0.0867-12.511 0.0588-13.377-0.062zm149.51-0.0463c-7.7808-1.0196-19.44-3.5375-27.672-5.9763l-3.541-1.049v-10.526c0-8.2208 0.14358-10.464 0.65574-10.245 0.36066 0.15463 3.1344 1.3877 6.1639 2.7401 7.272 3.2464 14.826 5.6897 22.12 7.1548 8.2812 1.6633 22.811 1.6745 28.846 0.0222 9.8351-2.6926 14.834-7.1976 16.14-14.545 0.66156-3.7226 0.0877-8.1133-1.4508-11.099-3.0797-5.977-10.078-9.122-30.77-13.827-11.374-2.5864-15.312-3.7194-20.286-5.8361-10.919-4.6465-16.998-11.22-19.562-21.151-1.1959-4.6324-1.0753-14.28 0.24278-19.434 0.57741-2.2578 0.99053-4.1552 0.91803-4.2164-0.0725-0.0612-1.536-0.51451-3.252-1.0073-5.0676-1.4551-9.1999-3.8462-12.612-7.2973-3.7034-3.7462-6.1263-8.064-7.7459-13.803-1.1365-4.0273-1.1615-4.8254-1.4297-45.542l-0.273-41.443-35.41-0.27625v-14.15h35.672v-28.353l18.098 0.28707 0.13969 14.033 0.13976 14.033h61.884v-28.328h18.361v28.328h35.672v14.15l-35.41 0.27625-0.1429 36.721c-0.0904 23.254 0.0549 38.016 0.39638 40.25 1.6894 11.056 7.7334 16.943 18.05 17.58 3.8146 0.23563 14.561-0.8963 16.851-1.7748 0.66649-0.25576 0.77991 0.7328 0.77991 6.7966v7.0959l-2.4918 0.81619c-6.6042 2.1632-20.346 3.0967-27.182 1.8463-1.712-0.31313-5.5077-1.239-8.4349-2.0574-9.204-2.5734-15.491-3.3029-25.874-3.002-9.7211 0.28167-12.917 0.85975-18.429 3.3333-8.3348 3.7404-12.025 13.426-8.1408 21.366 2.9721 6.0748 8.2116 8.4418 29.866 13.492 11.879 2.7704 19.995 5.2932 24.725 7.6852 12.637 6.3907 18.282 15.598 18.264 29.785-0.0136 10.412-2.7739 17.23-9.7753 24.147-6.5637 6.4842-15.256 10.507-27.045 12.518-4.6122 0.78662-22.318 1.1007-27.055 0.47994zm-11.533-124.49c8.2012-4.0626 20.599-6.1518 33.435-5.634 3.6787 0.14841 6.6885 0.21775 6.6885 0.15407 0-0.0637-0.35268-2.4558-0.78379-5.316-0.64063-4.2503-0.78437-12.219-0.78689-43.626l-3e-3 -38.426h-61.902v38.709c0 42.062 8e-3 42.198 2.9412 47.203 2.5601 4.3694 5.9005 6.9576 10.698 8.289 3.823 1.061 5.2369 0.86396 9.7128-1.3533zm-454.57-12.324v-135.08h18.885v107.43l19.803 0.25574c10.892 0.14067 20.334 0.42951 20.984 0.64188l1.1803 0.38613v-119.2h18.361v123.68l2.7809 1.407c4.2406 2.1456 9.4944 6.3019 12.17 9.6278 6.7744 8.421 10.063 21.562 8.6668 34.634-1.147 10.741-5.0734 19.265-11.917 25.872-4.375 4.2237-8.3728 6.8599-15.044 9.9201-3.7634 1.7263-4.9889 2.5251-4.7658 3.1065 0.16518 0.43044 9.9656 16.763 21.779 36.295 11.813 19.532 21.478 35.648 21.478 35.814s-4.9303 0.30184-10.956 0.30184h-10.956l-39.298-67.41-34.265-0.27663v67.686h-18.885z" stroke-width=".52459"/>
</svg>
